<?xml version="1.0" encoding="utf-8"?>
<!-- Generator: Adobe Illustrator 20.1.0, SVG Export Plug-In . SVG Version: 6.00 Build 0)  -->
<svg version="1.1" xmlns="http://www.w3.org/2000/svg" xmlns:xlink="http://www.w3.org/1999/xlink" x="0px" y="0px"
	 viewBox="0 0 300 300" style="enable-background:new 0 0 300 300;" xml:space="preserve">
<style type="text/css">
	.st0{fill:#A3A3A3;}
</style>
<g id="Layer_1">
	<path class="st0" d="M204.7,256.1c-36.7,0-73,0-109.7,0c0,2.3,0,4.6,0,6.8c0,9.7-6.4,16.2-16.1,16.3c-6.1,0.1-12.3,0.1-18.4,0
		c-9.7-0.1-16.1-6.6-16.1-16.3c0-5.2,0.3-10.5,0.3-15.7c0-0.6-0.4-1.2-0.7-1.7c-3.1-4.4-4.4-9.2-4.4-14.6c0-27.4,0-54.8,0-82.2
		c0-0.9,0-1.9,0-3.2c-2.6,0-5,0-7.4,0c-7,0-11.2-4.2-11.2-11.1c0-12.9,0-25.8,0-38.7c0-6.7,4-10.9,10.7-11.1c2.5-0.1,5.1,0,7.9,0
		c0-1.1,0-2.1,0-3c0.2-8.7-0.1-17.4,0.6-26c1.2-17.2,11.1-27.5,28.2-29.9c5.8-0.8,11.7-1.2,17.6-1.3c45.9-0.1,91.9-0.1,137.8,0
		c4.6,0,9.3,0.4,13.7,1.4c12.2,2.8,19.1,11.2,21.2,23.1c1.3,7.2,1.5,14.5,1.9,21.8c0.3,4.5,0,9,0,13.8c2.5,0,4.7,0.1,6.9,0
		c6.8-0.2,11.1,4.6,11,10.9c-0.4,12.7-0.1,25.5-0.1,38.2c0,7.3-4.1,11.4-11.4,11.4c-2.2,0-4.4,0-7,0c0,1.3,0,2.3,0,3.3
		c0,26.7,0,53.3,0,80c0,6.3-0.6,12.4-4.9,17.5c-0.3,0.3-0.3,0.8-0.3,1.3c0.1,5.4,0.2,10.8,0.2,16.2c-0.1,8.9-6.3,15.3-15.3,15.6
		c-6.6,0.2-13.2,0.2-19.8,0c-8.9-0.2-15.2-6.6-15.4-15.5C204.6,261.3,204.7,258.8,204.7,256.1z M50.1,145.6
		C50.1,145.6,50.1,145.6,50.1,145.6c0,28.2-0.1,56.4,0,84.6c0,7.8,2.8,11.8,10.4,13.5c5.2,1.1,10.7,1.6,16.1,1.6
		c48.5,0.1,97,0.1,145.5,0.1c3.1,0,6.2,0.2,9.3-0.2c3.8-0.5,7.7-1.2,11.3-2.4c3.9-1.3,6.3-4.3,7-8.4c0.3-1.9,0.7-3.9,0.7-5.9
		c0-53.1,0.1-106.2,0-159.3c0-5.5-0.5-11.1-1.4-16.6c-1.5-9.7-6.2-14.6-14.9-16.4c-2.2-0.5-4.4-0.7-6.6-0.7c-49,0-98.1-0.1-147.1,0
		c-4.3,0-8.7,0.6-13,1.4c-8.4,1.6-14.1,6.4-15.9,15c-0.6,3-1.1,6.1-1.1,9.2C50.1,89.3,50.1,117.5,50.1,145.6z M54.9,253.2
		c0,3.8,0,7.2,0,10.6c0,2.9,1.7,5,4.6,5c6.8,0.1,13.7,0.1,20.5,0c2.4,0,4.4-1.9,4.5-3.9c0-2.9-0.2-5.8-0.4-8.9
		C74.3,256,64.6,256.7,54.9,253.2z M215.4,256.1c0,2.8,0,5.1,0,7.5c0,3.2,1.8,5.2,4.9,5.2c6.6,0.1,13.2,0.1,19.8,0
		c3.4-0.1,5-2.2,4.7-5.7c-0.1-1.3,0-2.5,0-3.8c0-1.9,0-3.9,0-6.2C235.1,256.8,225.3,255.9,215.4,256.1z M31.6,95.3
		c0,13.4,0,26.6,0,39.7c2.7,0,5.3,0,7.9,0c0-13.4,0-26.5,0-39.7C36.9,95.3,34.3,95.3,31.6,95.3z M268.6,134.7c0-13.3,0-26.4,0-39.4
		c-2.8,0-5.2,0-7.7,0c0,13.2,0,26.3,0,39.4C263.6,134.7,266.1,134.7,268.6,134.7z"/>
	<path class="st0" d="M149.1,74.8c23.2,0,46.3,0,69.5,0c2.6,0,5.3,0.2,7.8,0.7c7.7,1.6,12.8,7.3,13.9,15.1c0.3,2.2,0.4,4.4,0.4,6.7
		c0,18.9,0,37.9,0,56.8c0,12.2-8.9,21.3-21.2,21.3c-46.6,0.1-93.2,0.3-139.7,0.4c-10.8,0-17.7-5.1-19.8-14.6
		c-0.4-1.9-0.6-3.8-0.6-5.7c0-20.1,0-40.1,0-60.2c0-2,0.2-4,0.6-5.9c1.9-8.6,7.8-13.7,16.7-14.4c3-0.2,6-0.3,9.1-0.3
		C106.9,74.8,128,74.8,149.1,74.8z M150,85.5c-23.6,0-47.3,0-70.9,0c-6.3,0-8.8,2.6-8.9,8.8c0,1,0,2.1,0,3.1c0,18.2,0,36.5,0,54.7
		c0,1.9,0,3.8,0.1,5.7c0.3,4.3,2.7,6.7,7,7c1.3,0.1,2.7,0.1,4.1,0.1c45.7-0.1,91.4-0.1,137.1-0.2c0.6,0,1.3,0,1.9,0
		c5.1-0.3,9.6-4.4,9.6-8.9c0.1-20.9,0.1-41.7,0-62.6c0-5-2.7-7.6-7.7-7.9c-1-0.1-2.1,0-3.1,0C196,85.5,173,85.5,150,85.5z"/>
	<path class="st0" d="M152.7,50.2c17.3,0,34.5,0,51.8,0c3.6,0,5.9,2.2,5.7,5.5c-0.1,2.5-2,4.5-4.7,4.9c-0.8,0.1-1.6,0.1-2.4,0.1
		c-33.7,0-67.5,0-101.2,0c-0.7,0-1.4,0-2.1,0c-3.1-0.3-5.3-2.7-5.1-5.5c0.2-2.8,2.4-4.8,5.5-4.8C117.6,50.2,135.1,50.2,152.7,50.2z"
		/>
	<path class="st0" d="M217.7,190.1c12.6,0,23,10.3,23,22.8c0.1,12.6-10.5,23.1-23.1,23.1c-12.5,0-22.9-10.5-22.9-23
		C194.7,200.3,205,190.1,217.7,190.1z M229.9,212.9c0-6.9-5.5-12.3-12.3-12.2c-6.8,0.1-12.2,5.6-12.2,12.4c0,6.9,5.4,12.2,12.3,12.1
		C224.6,225.2,229.9,219.7,229.9,212.9z"/>
	<path class="st0" d="M82.4,236c-12.6,0-23-10.3-23.1-22.8c-0.1-12.6,10.3-23.1,23.1-23.1c12.7,0,22.9,10.3,22.9,22.9
		C105.4,225.5,95,236,82.4,236z M70.2,212.9c0,7,5.2,12.3,12.1,12.3c6.7,0.1,12.4-5.5,12.4-12.2c0-6.8-5.4-12.3-12.2-12.4
		C75.6,200.6,70.2,206,70.2,212.9z"/>
</g>
<g id="Layer_2">
</g>
</svg>
