<?xml version="1.0" encoding="utf-8"?>
<!-- Generator: Adobe Illustrator 19.2.1, SVG Export Plug-In . SVG Version: 6.00 Build 0)  -->
<svg version="1.1" id="Layer_1" xmlns="http://www.w3.org/2000/svg" xmlns:xlink="http://www.w3.org/1999/xlink" x="0px" y="0px"
	 viewBox="0 0 63.2 84.2" style="enable-background:new 0 0 63.2 84.2;" xml:space="preserve">
<style type="text/css">
	.st0{fill:#FFFFFF;}
</style>
<path class="st0" d="M31.6,0C31.6,0,0,32.2,0,50.7s14.1,33.5,31.6,33.5c17.4,0,31.6-15,31.6-33.5S31.6,0,31.6,0z M22.5,33.4h7V18.9
	h4.2v14.5h6.9v2.7H22.5V33.4z M16.8,69.1c-1,0-1.7-0.8-1.7-1.7c0-1,1.7-2.6,1.7-2.6s1.7,1.7,1.7,2.6C18.5,68.4,17.7,69.1,16.8,69.1z
	 M16.8,60.9c-1,0-1.7-0.8-1.7-1.7c0-1,1.7-2.6,1.7-2.6s1.7,1.6,1.7,2.6S17.7,60.9,16.8,60.9z M16.8,52.6c-1,0-1.7-0.8-1.7-1.7
	c0-1,1.7-2.6,1.7-2.6s1.7,1.7,1.7,2.6C18.5,51.9,17.7,52.6,16.8,52.6z M22.7,69.1c-1,0-1.7-0.8-1.7-1.7c0-1,1.7-2.6,1.7-2.6
	s1.7,1.7,1.7,2.6C24.4,68.4,23.6,69.1,22.7,69.1z M22.7,60.9c-1,0-1.7-0.8-1.7-1.7c0-1,1.7-2.6,1.7-2.6s1.7,1.6,1.7,2.6
	S23.6,60.9,22.7,60.9z M22.7,52.6c-1,0-1.7-0.8-1.7-1.7c0-1,1.7-2.6,1.7-2.6s1.7,1.7,1.7,2.6C24.4,51.9,23.6,52.6,22.7,52.6z
	 M28.7,69.1c-1,0-1.7-0.8-1.7-1.7c0-1,1.7-2.6,1.7-2.6s1.7,1.7,1.7,2.6C30.4,68.4,29.6,69.1,28.7,69.1z M28.7,60.9
	c-1,0-1.7-0.8-1.7-1.7c0-1,1.7-2.6,1.7-2.6s1.7,1.6,1.7,2.6S29.6,60.9,28.7,60.9z M28.7,52.6c-1,0-1.7-0.8-1.7-1.7
	c0-1,1.7-2.6,1.7-2.6s1.7,1.7,1.7,2.6C30.4,51.9,29.6,52.6,28.7,52.6z M34.6,69.1c-1,0-1.7-0.8-1.7-1.7c0-1,1.7-2.6,1.7-2.6
	s1.7,1.7,1.7,2.6C36.3,68.4,35.5,69.1,34.6,69.1z M34.6,60.9c-1,0-1.7-0.8-1.7-1.7c0-1,1.7-2.6,1.7-2.6s1.7,1.6,1.7,2.6
	S35.5,60.9,34.6,60.9z M34.6,52.6c-1,0-1.7-0.8-1.7-1.7c0-1,1.7-2.6,1.7-2.6s1.7,1.7,1.7,2.6C36.3,51.9,35.5,52.6,34.6,52.6z
	 M40.6,69.1c-1,0-1.7-0.8-1.7-1.7c0-1,1.7-2.6,1.7-2.6s1.7,1.7,1.7,2.6C42.3,68.4,41.5,69.1,40.6,69.1z M40.6,60.9
	c-1,0-1.7-0.8-1.7-1.7c0-1,1.7-2.6,1.7-2.6s1.7,1.6,1.7,2.6S41.5,60.9,40.6,60.9z M40.6,52.6c-1,0-1.7-0.8-1.7-1.7
	c0-1,1.7-2.6,1.7-2.6s1.7,1.7,1.7,2.6C42.3,51.9,41.5,52.6,40.6,52.6z M46.5,69.1c-1,0-1.7-0.8-1.7-1.7c0-1,1.7-2.6,1.7-2.6
	s1.7,1.7,1.7,2.6C48.2,68.4,47.4,69.1,46.5,69.1z M46.5,60.9c-1,0-1.7-0.8-1.7-1.7c0-1,1.7-2.6,1.7-2.6s1.7,1.6,1.7,2.6
	S47.4,60.9,46.5,60.9z M46.5,52.6c-1,0-1.7-0.8-1.7-1.7c0-1,1.7-2.6,1.7-2.6s1.7,1.7,1.7,2.6C48.2,51.9,47.4,52.6,46.5,52.6z
	 M50,45.1H13.2v-3.2l9.3-4.9v-0.1h0.1h18l9.3,5H50V45.1z"/>
</svg>
